# xmcd
#
# Track frame offsets:
#	150
#	12030
#	33020
#	50227
#	64842
#
# Disc length: 1112 seconds
#
# Revision: 0
# Processed by: cddbd v1.4PL0 Copyright (c) Steve Scherf et al.
# Submitted via: dBpowerAMP V4.0
#
DISCID=38045605
DTITLE=Dean Acevedo - Just Another Dude From Montebello (East Of E.L.A.)
DYEAR=1900
DGENRE=
TTITLE0=Girl U Drive Me Crazy
TTITLE1=Hold On Child (You're Daddy's Coming Home)
TTITLE2=Como Friegas Mujer
TTITLE3=Jail For Christmas
TTITLE4=She Talks Incessantly
EXTD=
EXTT0=
EXTT1=
EXTT2=
EXTT3=
EXTT4=
PLAYORDER=
